<svg xmlns="http://www.w3.org/2000/svg" xmlns:xlink="http://www.w3.org/1999/xlink" viewBox="0 0 400 300" width="406" height="306" class="illustration styles_illustrationTablet__1DWOa"><defs><linearGradient id="linear-gradient" x1="216.47" y1="77.4" x2="197.44" y2="92.59" gradientUnits="userSpaceOnUse"><stop offset="0" stop-color="#d46a00"></stop><stop offset="0.74" stop-color="#f4d8bd"></stop><stop offset="1" stop-color="#fff"></stop></linearGradient><linearGradient id="linear-gradient-2" x1="277.52" y1="189.35" x2="250.01" y2="217.47" xlink:href="#linear-gradient"></linearGradient><linearGradient id="linear-gradient-3" x1="345.19" y1="148.61" x2="321.39" y2="172.93" xlink:href="#linear-gradient"></linearGradient><linearGradient id="linear-gradient-4" x1="175.6" y1="220.74" x2="161.16" y2="236.51" gradientUnits="userSpaceOnUse"><stop offset="0" stop-color="#d46a00"></stop><stop offset="1" stop-color="#fff"></stop></linearGradient><linearGradient id="linear-gradient-5" x1="55.94" y1="161.25" x2="41.98" y2="172.39" xlink:href="#linear-gradient"></linearGradient><linearGradient id="linear-gradient-6" x1="165.42" y1="137.98" x2="153.1" y2="152.95" xlink:href="#linear-gradient-4"></linearGradient><linearGradient id="linear-gradient-7" x1="123.43" y1="122.81" x2="106.48" y2="142.62" xlink:href="#linear-gradient-4"></linearGradient></defs><title>ZZZ</title><g style="isolation: isolate;"><g id="Layer_2" data-name="Layer 2"><path d="M213.1,265.55,387.75,162.34c5.56-3.12,10.33-8.25,4.91-11.61l-175.27-101c-2.63-1.63-6.62-2.7-9.3-1.14L24.76,155c-5.56,3.23-6.56,12.25-1,15.48l166.32,94.94A23.22,23.22,0,0,0,213.1,265.55Z" fill="#2c9135"></path><path d="M236.81,80.34l-31.65-9.06-25,15.88,21.27,14.63C209.83,96,228.92,86.77,236.81,80.34Z" fill="url(#linear-gradient)" style="mix-blend-mode: multiply;"></path><path d="M292,203.81l-30.33-16.68-36.24,26.24L253,227.45C261.34,221.64,284.1,210.24,292,203.81Z" fill="url(#linear-gradient-2)" style="mix-blend-mode: multiply;"></path><path d="M353.74,157.24l-10.94-4.46-38.72,20.47,20,12.69C332.38,180.13,345.86,163.67,353.74,157.24Z" fill="url(#linear-gradient-3)" style="mix-blend-mode: multiply;"></path><path d="M154.37,211.68a4.53,4.53,0,0,1-1.15,1.43c-7.56,6.38-16,11.7-24.19,17.3l43.14,24.75,42.5-35.9Z" fill="url(#linear-gradient-4)" style="mix-blend-mode: multiply;"></path><path d="M68.63,160.6l-12.09-5.27-25,15.88,12.1,7C52,172.43,60.74,167,68.63,160.6Z" fill="url(#linear-gradient-5)" style="mix-blend-mode: multiply;"></path><path d="M177.52,133l-6.82,30-7.94,7.63v11.8s-13.53,49.35-12.35,49.52,10.33,6.39,10.33,6.39L193.25,133Z" fill="#7f3f13"></path><polygon points="214.67 119.23 213.23 169.26 186.89 217.86 160.75 238.3 186.89 139.98 214.67 119.23" fill="#aa5115"></polygon><path d="M300.34,123.93l-1.39,10.21,5.13,3.63s-1.29,12.29-2.57,12.82S197,233.6,196.25,233.64s-18.73-5.35-18.73-5.35l6.66-25.58" fill="#aa5115"></path><polygon points="177.52 228.29 196.25 233.65 196.25 203.81 184.29 199.28 177.52 228.29" fill="#7f3f13"></polygon><polyline points="177.52 203.81 193.25 208.69 300.34 123.93 278.92 119.23" fill="#f47d25"></polyline><path d="M296.54,104.55v10.84S189.85,205.67,189.2,205s-6.34-7.44-6.34-7.44" fill="#aa5115"></path><path d="M285.53,96.72c1,.21,11,7.82,11,7.82L188.22,194.82l-5.36-7.13Z" fill="#f47d25"></path><polyline points="171.83 177.75 171.83 190.66 177.52 203.81 290.55 96.72 291.27 90.66" fill="#aa5115"></polyline><polygon points="171.83 177.75 274.58 83.53 291.27 90.66 178.03 192.01 171.83 177.75" fill="#f47d25"></polygon><polygon points="201.2 113.49 214.67 119.23 186.89 139.98 177.52 132.99 201.2 113.49" fill="#f47d25"></polygon><polygon points="298.95 134.14 229.66 193.1 304.08 137.77 298.95 134.14" fill="#7f3f13"></polygon><path d="M250.43,192.46s-4-2.67-5.2-2.05c-3.46,1.79-4.83,10.27-3.92,14.12s6.78,5.48,8.51,4.13C252,207,248.27,203,248.27,203" fill="#442827"></path><path d="M271,184c.54.72,6.15,21.18,6.33,24.43s-1.81,9.41-12.49,6.15S245.57,202,245.57,202s-1.94-7.06,4.94-10l4.64,3.81s-4.1-7.25-2.65-13.76c0,0,18.12-1.45,24.81-6,0,0,14.29,14.84,16.28,21.72s-5.07,9.23-8.51,8.51S273.31,200,273.31,200" fill="#f47d25"></path><polygon points="255.15 195.81 261.65 202.03 253.48 191.97 255.15 195.81" fill="#442827"></polygon><path d="M284.55,155.48l2.74,4.68s13.46-3.46,14.72-4.24,3.77-6,5-6.09-.47,4.83-.47,4.83,5.58-2.63,7.12-2.71,3.94.86,4.2,1.84-3.21,5.06-4.56,5.61a51.91,51.91,0,0,1-6.4,1.31s-15.64,8.8-22.4,9.05-9.66-12.61-9.66-12.61Z" fill="#fdc2b0"></path><path d="M275.37,142.88s11.85,10.19,9.9,14.37c-.75,1.61-9.94,4.67-9.94,4.67L274,152" fill="#68e1fd"></path><path d="M254.38,171.18s-3.86-.16-9.37-5.66c0,0,2.41-8.69,8.6-14.26s15-10,21.76-8.38-.14,23.6.07,25.37,3.24,11.7,3.24,11.7-15.74,7-25.66,5.88Z" fill="#68e1fd"></path><path d="M253.61,151.26,276.83,174l-1.39-5.77.44-2.61-17.13-18.32A6.22,6.22,0,0,0,253.61,151.26Z" fill="#452729"></path><path d="M271.79,144.14s-12.72,22.43-17.63,29.43l-.33,3.55s18.28-23.66,23-33.37C276.83,143.75,272.35,140.59,271.79,144.14Z" fill="#452729"></path><path d="M271.54,137.36s2.4-.93,2.3-3.16-3.14-3.09-3.14-3.09-.82-3.48-6-3.56-6.67,3.44-6.67,3.44-3.33.7-4.16,3.57-.32,4.92.84,6.23a3.76,3.76,0,0,0,1.13,3.26c1.5,1.49,4.41,4.32,7.48,3" fill="#e8c018"></path><path d="M271.35,135.11s.23,10.31-1.22,12c-2.35,2.74-5.9,3.34-8,.48,0,0-4.43-2.17-3.59-4.49s3.26-.55,3.26-.55-.6-6.33,4-8.13S271.35,135.11,271.35,135.11Z" fill="#ffcdc2"></path><path d="M271.25,135.15s.27.73-3.2.3-5.54,6.26-5,9.65c0,0-3.06-4.63-2.62-7.42s1.44-4.49,4.32-5.17S270.79,132.34,271.25,135.15Z" fill="#e8c018"></path><path d="M279.18,173.57s0,2.12-.09,2.76a3.89,3.89,0,0,1-.88,1.58l-4,2.22-1.17.54,1-2.31s2.77-1.33,3.16-1.64.07-2.24.07-2.24Z" fill="#36778e"></path><path d="M278.87,174.14s-.06,2-.06,2a2.19,2.19,0,0,1-.72,1.33c-.56.34-4.6,2.39-4.6,2.39l-.09,1.09,5.35-2.91a2.58,2.58,0,0,0,.83-1.93c0-1.22-.07-2.86-.07-2.86" fill="#225870"></path><path d="M326.86,143.09l.31-.13.12,0,3-6.12-1.23-.2-.82.45-2.41,5.32s.6.47,1,.75Z" fill="#36778e"></path><path d="M326.81,143.07s2.19-5.64,2.32-5.7l1.14-.57,1.49,3.66L331,141l-1.22-2.85-1.83,4.42" fill="#225870"></path><path d="M275.64,178.11l-1.1-.87a4,4,0,0,0,1.48-2.3l1.2-.48-.06,1.84" fill="#36778e"></path><path d="M276.77,174.78a4.15,4.15,0,0,1-.05,1.73c-.25.61-1.36,1.47-1.08,1.6a3.78,3.78,0,0,0,2.16-1.47,18.84,18.84,0,0,0,.27-2.62" fill="#225870"></path><path d="M244,202.24l-2.71-1.74.2-11.88L256,179l2,.06,5.74-4.57-1.93-1.42s4.34-1.67,4.66-2.33,1.22-2.09,1.22-2.09L309,146.08l.48.57s7.83-4.31,8-4.31,2.19,1.45,2.19,1.45l.62-.19s1.12.81,1.39.76S331.86,139,331.86,139l1.3.68L298,159.8l-10.3,9.33,1.15,5.11s3.42,2.61,7,2.2l1.86,1.41-3.29,3.74-7.55,1.63s-5.5-3.37-6.25-8.73l-.31-3.45-7.5,6.06-6.52,14.38s-4-2-4.12-3.34,3.52-10.51,3.52-10.51" fill="#36778e"></path><path d="M244.36,190.08,244,202.24,266.57,181l1.41-.94a.83.83,0,0,1,1,1c-.16,1.22-3.53,7.6-3.36,8.79s.24,1.49.63,1.55a17.22,17.22,0,0,0,3.09-1.56s4.7-10.18,4.76-10.69.08-2.49.08-2.49l8.21-4.57s-.64,12.3,11.3,13.62l4-7.95s-7.48.33-8.38-9.41l4.6-2.86a2.75,2.75,0,0,0,3.1-.12,10.31,10.31,0,0,0,3.12-3.64l12.1-6.66,0-1.6,10.87-5.72v-.47l8.55-4.46s0-1.2.26-1.37,1.18-.78,1.18-.78l0-1.12-10.35,5.56s-1.32.9-2.8-.95l-20.75,11.34-.07-.65-28.83,15.68L266.73,176l-5.65,4.91-2.67-.21Z" fill="#225870"></path><path d="M275.88,201.63,271,184l1.45-2.16S274.94,197.57,275.88,201.63Z" fill="#77bc4b"></path><path d="M254.54,169.75c.58.07-2.38,4.55-2.06,5a114.8,114.8,0,0,0,10.72,7.15c1.52.65,8.67-1.52,9.21,0s-3,1.3-3,1.3,3.68,3.25,4.22,4.66-.7,4.67-1.27,4.77-6.1-2.06-7.18-2.93a30.86,30.86,0,0,1-3.25-3.79s-12.45-2.38-16.57-7,1.19-12.78,1.19-12.78A15.65,15.65,0,0,0,254.54,169.75Z" fill="#fdc2b0"></path><polyline points="104.21 71.85 126.54 83.74 128.55 76 106.1 65.54" fill="#261514"></polyline><polyline points="112.15 49.93 105.72 48.57 99.3 54.84 90.42 76.19 96.28 78.87" fill="#635c5b"></polyline><polyline points="154.19 139.32 140.12 149.98 156.58 161.08 173.04 147.47" fill="url(#linear-gradient-6)" style="mix-blend-mode: multiply;"></polyline><path d="M164.16,128.61s-1.26,7,.79,7.82,10.35,7.31,9.11,9.91c-2.85,6-19.87-7-19.87-7l2.11-14.8" fill="#ef9841"></path><path d="M172.07,113.1a2,2,0,0,0,0-1.21l-.41-1c-1.38-3.25-4.51-4.53-7.72-5.34a42.4,42.4,0,0,1-10.43-3.64,10.12,10.12,0,0,1-.2,1.41c-1.5-.33-14.1-2-14.1-3.08l-2.42,20.45s8.71,1,15.89-3.08c-.24,4.8-.45,8.83-.45,8.83s9.46,8.73,16.51,8.18Z" fill="#fff7e1"></path><polyline points="104.1 121.34 79.14 137.22 113.53 157.2 142.37 138.02" fill="url(#linear-gradient-7)" style="mix-blend-mode: multiply;"></polyline><path d="M107.32,108.59s-3.83-2.82-5.27-2.38-2,16.39-1,17.37,4.35,4.63,6.26,3.85,3-3.85,3-3.85" fill="#ef9841"></path><path d="M142.51,98.81l-22.81,1.4,4.3,16-14.7-11.1c-2.86,3.05-2.38,6.31-2.54,10.33a23.6,23.6,0,0,0,.77,7.79c.08.27.18.54.27.81,1.37,1.26,3,2.37,4.06,3.23,2.64,2.09,5.2,4.27,7.8,6.41,3.67,3,7.16,5.91,11.8,7.3s12.78-2.08,13.72-7.51C146.88,123.79,143.87,108.48,142.51,98.81Z" fill="#fff7e1"></path><path d="M122,60.06c-.87-1.53-3.6-3.53-5.19-1.77a1.87,1.87,0,0,0,.26,2.6,7.83,7.83,0,0,0,3.19,1.3.84.84,0,0,0,1.09-.82A.88.88,0,0,0,122,60.06Z" fill="#fbb5ad"></path><path d="M141.44,89l-23.38-5.76s.73,10.14,1.64,16.92c4.18,1.88,9.28,1.84,13.72,1.19a29.3,29.3,0,0,0,9.09-2.59,20.5,20.5,0,0,0,2.67-1.66C144.82,94.69,141.72,91.51,141.44,89Z" fill="#2c4f15"></path><path d="M142.83,91.07c.7,3.58,1.13,7.2,2.06,10.72-10.3-2.89-29.93-10-31.29-24.07a13.35,13.35,0,0,1,.69-5.9c1.24-2,3.27-3.63,4.92-5.16s4.4-1.88,6.69-2a23.71,23.71,0,0,1,5.43,0,26,26,0,0,1,5.4,2.08c7.34,3.2,15.42,5.18,23.07,7.65l8.35,1.87-9.57,8.58-18.1-3.61" fill="#2c4f15"></path><path d="M131.22,55.94s.14,12.27-4.05,13-7.58-2.81-7.81-5.17a17.08,17.08,0,0,1,.87-5.66S124,54.5,131.22,55.94Z" fill="#fbb5ad"></path><path d="M132,53.92c.71-2.83-2.92-5.46-5.25-3.41a4.23,4.23,0,0,0-3.18-1.65c-1.75-.06-2.58,1-2.77,2.65a3.17,3.17,0,0,0-2.77.71,2.84,2.84,0,0,0-.68,3.2A2.9,2.9,0,0,0,115,58.15a3.53,3.53,0,0,0,.27,1.78,2.71,2.71,0,0,0-.28.53,2.8,2.8,0,0,0,.71,3,3.21,3.21,0,0,0,1.69.91,2.47,2.47,0,0,0,2,1.76A2.39,2.39,0,0,0,122,64.43a2.33,2.33,0,0,0,.07-1,5.62,5.62,0,0,0,1-3.72,2.07,2.07,0,0,0,.54-.13,2.35,2.35,0,0,0,1.19-1.17,3.32,3.32,0,0,0,1.65.49,1.59,1.59,0,0,0,1.36-.79,3.89,3.89,0,0,0,4.32-.6A2.73,2.73,0,0,0,132,53.92Z" fill="#d86212"></path><path d="M123.33,62.74a2.87,2.87,0,0,0-.84-2.1,1.51,1.51,0,0,0-2.15-.23,1.73,1.73,0,0,0-.31,2c.38.78,1.23,1,1.9,1.41.4.27.76-.12.74-.51A.58.58,0,0,0,123.33,62.74Z" fill="#fbb5ad"></path><path d="M129.37,60.9c0-.28-.44-.25-.44,0v1.91a5.07,5.07,0,0,1,0,.88c-.1.5-.37.55-.81.71a.22.22,0,0,0,.14.42c.56-.2,1-.26,1.1-.9A24.62,24.62,0,0,0,129.37,60.9Z" fill="#56403d"></path><path d="M128,60.7h-4l-1.89-.37.93,1.06,1.47.27s-.47,2.27,1.42,2.24,2.86-.19,3.15-1.59c0,0,.17,1.29,1,1.22s1.08-.8,1.23-1.55a6.25,6.25,0,0,0,0-1.8A26.6,26.6,0,0,1,128,60.7Z" fill="#56403d"></path><path d="M128.06,65.55q-1.51-.16-3-.21a.3.3,0,0,0,0,.6q1.52,0,3,.21C128.44,66.2,128.44,65.59,128.06,65.55Z" fill="#56403d"></path><path d="M144.34,105.06c-.13-.69-1.19-.4-1.06.29a144.41,144.41,0,0,1,2.1,15.67c.05.7,1.15.7,1.1,0A147.12,147.12,0,0,0,144.34,105.06Z" fill="#18696d"></path><path d="M128.49,131.6a116.86,116.86,0,0,1-3.86-14.6c-.14-.69-1.19-.4-1.06.29a116.86,116.86,0,0,0,3.86,14.6C127.66,132.56,128.72,132.27,128.49,131.6Z" fill="#18696d"></path><path d="M138.61,100.08a46.15,46.15,0,0,1-20.55-12.76c-.36-.39-.94.19-.58.58a47,47,0,0,0,20.91,13A.41.41,0,0,0,138.61,100.08Z" fill="#261514"></path><path d="M147.26,93.48a70.18,70.18,0,0,1-15.34-8.59c-.43-.31-.84.4-.42.71A71,71,0,0,0,147,94.27C147.53,94.47,147.74,93.68,147.26,93.48Z" fill="#af3e2f"></path><path d="M150.23,91.12s0,2-.08,2.62a3.69,3.69,0,0,1-.84,1.5l-3.84,2.1-1.11.51,1-2.19s2.63-1.26,3-1.55.07-2.13.07-2.13Z" fill="#36778e"></path><path d="M149.94,91.66s-.06,1.92-.06,1.92a2.08,2.08,0,0,1-.68,1.26c-.53.32-4.37,2.27-4.37,2.27l-.08,1,5.07-2.76a2.45,2.45,0,0,0,.79-1.83c0-1.16-.07-2.71-.07-2.71" fill="#225870"></path><path d="M195.49,62.2l.29-.13.11,0,2.84-5.81L197.56,56l-.78.43-2.29,5s.57.45.93.71Z" fill="#36778e"></path><path d="M195.44,62.17s2.08-5.35,2.2-5.41l1.08-.54,1.41,3.48-.75.52-1.16-2.71-1.74,4.2" fill="#225870"></path><path d="M146.87,95.43l-1-.82a3.8,3.8,0,0,0,1.41-2.18l1.14-.45-.05,1.75" fill="#36778e"></path><path d="M147.94,92.27a3.94,3.94,0,0,1-.05,1.64c-.23.58-1.29,1.39-1,1.52a3.58,3.58,0,0,0,2.05-1.4,17.88,17.88,0,0,0,.26-2.49" fill="#225870"></path><path d="M116.82,118.34l-2.57-1.65.19-11.28,13.75-9.12,1.91.06L135.55,92l-1.83-1.35s4.12-1.58,4.43-2.22,1.15-2,1.15-2L178.52,65l.46.54s7.43-4.09,7.56-4.09,2.08,1.38,2.08,1.38l.59-.18s1.06.76,1.31.72,9.72-5.1,9.72-5.1l1.24.64-33.4,19.12-9.78,8.86,1.09,4.85s3.25,2.48,6.63,2.08l1.77,1.34-3.12,3.55-7.17,1.55s-5.22-3.2-5.93-8.29l-.3-3.28-7.12,5.75L138,108.12s-3.81-1.87-3.91-3.17,3.34-10,3.34-10" fill="#68e1fd"></path><path d="M117.18,106.8l-.36,11.54,21.44-20.13,1.34-.89a.79.79,0,0,1,.95,1c-.15,1.16-3.35,7.22-3.19,8.35s.23,1.41.6,1.47a16.34,16.34,0,0,0,2.93-1.48s4.47-9.66,4.52-10.15.07-2.36.07-2.36l7.79-4.33s-.61,11.68,10.73,12.93l3.78-7.55s-7.1.31-8-8.93l4.36-2.72a2.61,2.61,0,0,0,2.94-.11,9.78,9.78,0,0,0,3-3.45l11.49-6.32,0-1.52,10.32-5.43v-.45L200.07,62s0-1.14.24-1.3,1.12-.74,1.12-.74l0-1.06-9.82,5.28s-1.25.86-2.66-.9L169.29,74.08l-.06-.61L141.87,88.35l-3.45,5.09L133,98.11l-2.53-.2Z" fill="#68e1fd"></path><path d="M117.18,106.8l-.36,11.54,21.44-20.13,1.34-.89a.79.79,0,0,1,.95,1c-.15,1.16-3.35,7.22-3.19,8.35s.23,1.41.6,1.47a16.34,16.34,0,0,0,2.93-1.48s4.47-9.66,4.52-10.15.07-2.36.07-2.36l7.79-4.33s-.61,11.68,10.73,12.93l3.78-7.55s-7.1.31-8-8.93l4.36-2.72a2.61,2.61,0,0,0,2.94-.11,9.78,9.78,0,0,0,3-3.45l11.49-6.32,0-1.52,10.32-5.43v-.45L200.07,62s0-1.14.24-1.3,1.12-.74,1.12-.74l0-1.06-9.82,5.28s-1.25.86-2.66-.9L169.29,74.08l-.06-.61L141.87,88.35l-3.45,5.09L133,98.11l-2.53-.2Z" fill="#261514" opacity="0.48"></path><path d="M153.73,91.35a2.72,2.72,0,0,0-2.47,1.59c-.35.61-.59,1.27-1,1.86-.65.95-1.18.58-2.13.13s-1.92,1-.89,1.53a6.14,6.14,0,0,0,2.64.91,2.18,2.18,0,0,0,1.4-1,.82.82,0,0,0,1.41.34,9.48,9.48,0,0,0,2.21-3.22A1.57,1.57,0,0,0,153.73,91.35Z" fill="#fbb5ad"></path><path d="M159.07,98.44q-6.12-2.07-12.25-4.08c-.25,2.07-.38,4.15-.54,6.23a29.94,29.94,0,0,0,6,5.55,1,1,0,0,0,1.48-.85,3.23,3.23,0,0,0-.32-1.11,13.36,13.36,0,0,0,2.66,1.37,1,1,0,0,0,1-1.64l-.82-.66a8.24,8.24,0,0,0,2.08.09c1-.09,1.41-1.66.26-1.93-.46-.11-.91-.24-1.36-.38a4.74,4.74,0,0,0,2.26-1C160.12,99.59,159.7,98.66,159.07,98.44Z" fill="#fbb5ad"></path><path d="M113.6,77.72s.61,9.22,10.72,15.2a95.07,95.07,0,0,0,20.57,8.86l3.26-6.85L124.53,77.05" fill="#2c4f15"></path><path d="M173.3,75.08c-1.42-.06-1.4,1.56-1.17,2.75-1-1.17-2.29-2.28-3.36-1.32-.68.61-.53,1.36,0,2.08-.15-.13-.31-.27-.47-.39a1.81,1.81,0,0,0-2.54.15,1.78,1.78,0,0,0,.36,2.43,1.3,1.3,0,0,0-1.15.6c-1.19,1.9,2.35,2.88,3.46,3.38a.69.69,0,0,0,.24,0c.64.46,1.54.62,2-.25a1.25,1.25,0,0,0,.05-.87,2.21,2.21,0,0,0,1.81-.32,1.13,1.13,0,0,0,.44-1,1.42,1.42,0,0,0,1.09-1,2,2,0,0,0-.19-1.66,2,2,0,0,0,.54-1.78C174.66,76.74,174.74,75.15,173.3,75.08Z" fill="#fbb5ad"></path><path d="M118.06,67.7c.07,0,21.77,12.43,21.77,12.43l1,3.9L114.29,71.82S116.21,67.79,118.06,67.7Z" fill="#261514"></path><polygon points="96.28 78.87 102.24 81.14 112.15 60.21 112.15 49.93 105.16 56.86 96.28 78.87" fill="#261514"></polygon><path d="M215.83,63.07s-5.66-2.56-7.48,1.86a17.68,17.68,0,0,1-6.09,7.16l-5.13,3.75s-5.13,4.49,0,7.8,11.41,6.56,16.06,5.75,13.25-7,13.25-7l4.42,1.28,6-3.3L233.17,70,232,66.28Z" fill="#635c5b"></path><path d="M232,66.28s-5.77,4.06-7.91,2.7-5.36,1.19-5.36,1.19l-2.9,5.67s-4.22,3.94-5.58,4.65-6.47,6.9-6.47,6.9,7.48,4.94,12.91.81a46.17,46.17,0,0,1,9.74-5.83l4.42,1.28,6-3.3Z" fill="#261514"></path><path d="M54.67,170l3.49-1.88,5-16.31H49.86l-3.53,15.5A71.55,71.55,0,0,0,54.67,170Z" fill="#7f3f13"></path><path d="M57.8,157.75,54.55,170l.12,0c1.28-.68,2.54-1.35,3.73-2,6.88-3.77,13.67-7.68,20.67-11.22l1.83-.93.45-15.69Z" fill="#aa5115"></path><polygon points="69.94 135.29 81.35 140.16 57.8 157.75 49.86 151.82 69.94 135.29" fill="#f47d25"></polygon><path d="M346.29,159.43c3,.68,5.14-.68,7.45-2.19V73.55a1.87,1.87,0,0,0-1.87-1.87h-9.71a1.87,1.87,0,0,0-1.87,1.87v82.1A9.79,9.79,0,0,0,346.29,159.43Z" fill="#bc532a"></path><path d="M380.24,89.93c-3.11-13.46-16.89-72.8-41.32-55.36-12.52,8.93-16.05,22.9-21.06,36.56-4.15,11.31-7.59,23.21-7.78,35.35-.39,24.69,24.72,27.71,43.93,27.61,11.08-.05,26.89-6.59,29.47-18.62,1.56-7.25-1.1-15.81-2.65-22.92Q380.54,91.24,380.24,89.93Z" fill="#adce46"></path><path d="M381.41,92.55q-.29-1.31-.59-2.62C378.08,78,367,30.25,347.55,31.42c5.77,25.18,14.28,51.79,9.74,77.56-1.58,9-5,17.84-10.28,24.95,2.58.13,5.13.17,7.58.16,11.08-.05,26.89-6.59,29.47-18.62C385.62,108.21,383,99.65,381.41,92.55Z" fill="#6db526"></path></g></g></svg>