<svg xmlns="http://www.w3.org/2000/svg" xmlns:xlink="http://www.w3.org/1999/xlink" viewBox="0 0 400 300" width="406" height="306" class="illustration styles_illustrationTablet__1DWOa"><defs><linearGradient id="linear-gradient" x1="111.31" y1="229.99" x2="157.74" y2="191.15" gradientUnits="userSpaceOnUse"><stop offset="0" stop-color="#fff" stop-opacity="0"></stop><stop offset="0.99" stop-color="gray"></stop></linearGradient><linearGradient id="linear-gradient-2" x1="183.53" y1="269.93" x2="222.54" y2="240.03" gradientUnits="userSpaceOnUse"><stop offset="0" stop-color="#fff" stop-opacity="0"></stop><stop offset="1" stop-color="#333"></stop></linearGradient><linearGradient id="linear-gradient-3" x1="297.85" y1="213.75" x2="318.81" y2="196.22" xlink:href="#linear-gradient"></linearGradient><linearGradient id="linear-gradient-4" x1="59.23" y1="171.65" x2="88.49" y2="149.74" gradientUnits="userSpaceOnUse"><stop offset="0" stop-color="#fff" stop-opacity="0"></stop><stop offset="0.99" stop-color="#333"></stop></linearGradient></defs><title>PP</title><g style="isolation: isolate;"><g id="Layer_2" data-name="Layer 2"><path d="M194.28,288.83,14.56,182.61c-5.72-3.21-10.63-8.49-5.05-11.94l180.37-104c2.71-1.68,6.82-2.78,9.57-1.18L388.11,175c5.72,3.32,6.75,12.6,1,15.93L218,288.66A23.9,23.9,0,0,1,194.28,288.83Z" fill="#ff9f9f"></path><path d="M310.91,143c1.08-.77,2.19-1.51,3.33-2.19a1,1,0,0,0-1-1.73A48.91,48.91,0,0,0,309,141.9h0l-2.68-1.56c1.14-.45,2.26-.93,3.36-1.49s.14-2.31-1-1.73A35.45,35.45,0,0,1,304.4,139a1,1,0,0,0-.21.13l-1.31-.76,4.22-2.51a1,1,0,0,0-1-1.73l-5.11,3-.06.06-1.78-1,4.21-2.63c1.09-.68.09-2.41-1-1.73L297.18,135,295,133.78c1.28-.79,2.58-1.54,3.91-2.22,1.15-.58.14-2.31-1-1.73a56,56,0,0,0-4.86,2.81l-1.2-.7a24.34,24.34,0,0,1,4.76-3c1.16-.55.15-2.27-1-1.73a26,26,0,0,0-5.6,3.61l-1.65-1c1.59-.95,3.17-1.92,4.71-3,1.07-.71.07-2.44-1-1.73q-2.78,1.86-5.67,3.53l-1.48-.86a30.31,30.31,0,0,0,3-2c1-.77,0-2.5-1-1.73a30.31,30.31,0,0,1-4,2.53l-1.6-.93,3.43-2.34c1.06-.72.06-2.45-1-1.73l-4.33,3-1.74-1c1.39-.86,2.81-1.69,4.26-2.46,1.14-.6.13-2.33-1-1.73q-2.67,1.41-5.21,3l-1.49-.87c1.3-.92,2.59-1.87,3.83-2.88,1-.81-.42-2.22-1.41-1.41-1.39,1.12-2.83,2.18-4.31,3.19L270,119.2c1.05-.74,2.09-1.52,3.08-2.35s-.43-2.24-1.41-1.41a40.82,40.82,0,0,1-3.56,2.66L266.25,117l3.55-2.77c1-.79-.41-2.2-1.41-1.41l-4,3.11-2.29-1.33a31.41,31.41,0,0,0,3.48-2.75c.95-.88-.47-2.29-1.41-1.41a28.54,28.54,0,0,1-4,3.06l-1.42-.83a16.34,16.34,0,0,1,2.66-1.87,1,1,0,0,0-1-1.73,18.34,18.34,0,0,0-3.46,2.55l-2.21-1.29,3.28-1.91a1,1,0,0,0-1-1.73l-3.78,2.2a1,1,0,0,0-.35.36L250.8,108a17.11,17.11,0,0,1,2.7-1.44c1.18-.5.16-2.22-1-1.73a17.59,17.59,0,0,0-3.6,2.06l-.12-.07L84,200.9a39.27,39.27,0,0,0-5.4,2.89c-1.08.69-.08,2.42,1,1.73a39.27,39.27,0,0,1,5.49-2.93l1.66,1-5.07,3a1,1,0,0,0,1,1.73l6-3.56.76.45L85.11,208c-1.07.7-.07,2.43,1,1.73l5.25-3.43,1.76,1a43.58,43.58,0,0,0-4.92,3.13c-1,.75,0,2.49,1,1.73a43.59,43.59,0,0,1,5.94-3.66l.75.45-4.45,3.56c-1,.8.42,2.21,1.41,1.41l4.87-3.89,2.29,1.36a46.36,46.36,0,0,0-4.86,3.28c-1,.79.41,2.19,1.41,1.41a42.34,42.34,0,0,1,5.23-3.44.93.93,0,0,0,.14-.12l1.27.75a18.19,18.19,0,0,0-4.82,3.85c-.78,1,.62,2.43,1.41,1.41,1.32-1.7,3.45-2.92,5.34-4.12l1.74,1c-1.44,1.21-2.9,2.39-4.4,3.52-1,.77,0,2.5,1,1.73q2.67-2,5.21-4.18l1.31.78a35,35,0,0,0-4.86,4.1c-.9.92.51,2.33,1.41,1.41a32.84,32.84,0,0,1,5.35-4.39l2.24,1.33a1,1,0,0,0-.79.23l-4.05,3.25c-1,.81.42,2.21,1.41,1.41l4.05-3.25a.81.81,0,0,0,.15-1.19l3.45,2c-1.83,1.08-3.64,2.19-5.41,3.37-1.07.71-.07,2.44,1,1.73q3.12-2.08,6.37-3.93l1.48.88a31.38,31.38,0,0,1-3.94,2.49c-1.14.61-.13,2.33,1,1.73a33,33,0,0,0,4.77-3.13l3.29,1.95-4.4,3c-1.05.73-.05,2.46,1,1.73l5.28-3.66,2.06,1.22-5.36,3.87c-1,.75,0,2.48,1,1.73l6.22-4.5,1,.59c-1.62,1.34-3.27,2.63-5,3.83-1,.73,0,2.47,1,1.73,2-1.4,3.94-2.91,5.81-4.48l2.21,1.3c-1.28.93-2.54,1.88-3.78,2.86-1,.8.42,2.21,1.41,1.41,1.38-1.1,2.8-2.15,4.24-3.17l1.11.66c-1.14.9-2.26,1.83-3.35,2.8s.45,2.27,1.41,1.41c1.22-1.09,2.49-2.12,3.78-3.12l1,.57c-.86.74-1.74,1.46-2.65,2.14s0,2.51,1,1.73c1.18-.9,2.32-1.84,3.44-2.81l1.23.73q-2.24,1.58-4.61,3a1,1,0,0,0,1,1.73,66.25,66.25,0,0,0,6.3-4.23L314.85,145.3Z" fill="#ffe1e1"></path><polyline points="193.54 193.38 116.14 238.78 86.47 218.59 140.11 188.71" opacity="0.32" fill="url(#linear-gradient)" style="mix-blend-mode: multiply;"></polyline><polyline points="135.63 190.28 130.11 200.94 126.01 200.94 129.46 207.36 137.04 204.94 146.66 194.26" fill="#32416a"></polyline><path d="M127.16,219.75l12-5.11L137,202.29s-2.72,5.12-8,.46c-1-.86-6-17.82-16.11-13.26" fill="#3353c2"></path><path d="M112.91,189.49c4.29-1.48,7.81,4.69,9.65,7.6,3.39,5.36,4.59,11.9,5.86,18a4.38,4.38,0,0,1-5.17,5.41c-3.49-.6-6.25-7.82-6.25-11.43S109.42,190.69,112.91,189.49Z" fill="#32416a"></path><path d="M265.8,147.82a31.45,31.45,0,0,0,4.9,4.5c1.12.72,7-2.24,8.88-2.51s9.94.13,10.07,1.19-1.46,3-4,4.24-7.68.79-7.95,1.59,6.75,1.06,6.62,2.38-4.77,2.38-8.48,1.85-5.3-.53-6.76-1.46-9.41-5.1-9.41-5.1Z" fill="#ffc99c"></path><path d="M201.62,147.57s-32.65-3.94-40-1.94-14.48,19.16-14.48,19.16l-14.68,26.07,18.65,7.08s15.41-30.7,17.42-31.82,37.21,4.4,37.21,4.4,17.17-8.62,17.5-14.64S201.62,147.57,201.62,147.57Z" fill="#68e1fd"></path><path d="M230.48,152.32s6.69,14.71-3.79,23.4-47.46,23.84-47.46,23.84-41.45,18-41.67,17.38-6.24-7.8-4.9-15.6L197,168.81Z" fill="#68e1fd"></path><path d="M260.11,137.61c-4.23-3.57-14.26-25.63-22.06-34.09a26.54,26.54,0,0,0-18.5-8.24,27.93,27.93,0,0,0-14.55.52c-7.23,3.93-7.68,16.63-7.94,23.77s.58,14.49.08,21.65c-.13,3.86-.09,6.19-.09,6.19l1.73.77c10,14.93,35.47,8.38,35.47,8.38l-1.56-27.19c6.91,11.59,29.41,29,29.41,29l7.8-10.92A123.63,123.63,0,0,0,260.11,137.61Z" fill="#e24340"></path><path d="M203,79.43s-1.66,16.44,6.2,17.69a9.45,9.45,0,0,0,10.53-5.25s1.23-11.6-4.24-15S203,79.43,203,79.43Z" fill="#ffc99c"></path><path d="M211.88,81.8a22.33,22.33,0,0,1-6.7,1.26c-3.22,0-5.4.45-5.94-2s-1.55-7,3-10,17.89-6.2,23.65,4.73,4.79,16.91,1.72,20.46-11.07,3.92-12.85.3S211.88,81.8,211.88,81.8Z" fill="#68e1fd"></path><path d="M195.35,98.32l-1.91,1.7s2.64,8.88,11.38,9.15c0,0,6,.64,9.38-3.09l-1-1.82s-5,2.77-8.15,2.22A12.71,12.71,0,0,1,195.35,98.32Z" fill="#68e1fd"></path><path d="M213.21,104.25s-5,2.76-8.11,2.24c0,.9-.11,1.79-.17,2.69.8.06,6.12.35,9.27-3.1Z" fill="#606060" opacity="0.19" style="isolation: isolate;"></path><path d="M205.1,106.49a13.84,13.84,0,0,1-9.75-8.18l-1.12,1a14,14,0,0,0,2.7,4.28,12,12,0,0,0,8.1,4.13C205.05,107.31,205.08,106.93,205.1,106.49Z" fill="#ffe89f"></path><path d="M213.21,104.25s-5,2.76-8.11,2.24q0,.63-.08,1.25a11.28,11.28,0,0,0,1.22,0,11,11,0,0,0,5.07-1.36c.69-.39,1.36-.81,2-1.21l.28-.17Z" fill="#ffedbb"></path><path d="M208.79,94.57a1.63,1.63,0,0,1-1.15.35,2.17,2.17,0,0,1-1.35-.64,1.75,1.75,0,0,1-.26.3l-1,11.9s5.42.9,8.16-2.23Z" fill="#e91837"></path><path d="M205.3,94.92a1.64,1.64,0,0,1-1.69-1.24,1.31,1.31,0,0,1-1.51-.75l-6.76,5.39a13,13,0,0,0,9.7,8.17l1-11.9A1.22,1.22,0,0,1,205.3,94.92Z" fill="#cc1b3d"></path><ellipse cx="202.07" cy="94.79" rx="0.45" ry="0.28" transform="translate(61.84 268.43) rotate(-76.21)" fill="#66390c"></ellipse><ellipse cx="204.3" cy="96.35" rx="0.45" ry="0.28" transform="translate(62.03 271.78) rotate(-76.21)" fill="#66390c"></ellipse><ellipse cx="204.09" cy="99.11" rx="0.45" ry="0.28" transform="translate(59.18 273.68) rotate(-76.21)" fill="#66390c"></ellipse><ellipse cx="201.29" cy="99.13" rx="0.45" ry="0.28" transform="translate(57.03 270.98) rotate(-76.21)" fill="#66390c"></ellipse><ellipse cx="203.61" cy="103.46" rx="0.45" ry="0.28" transform="translate(54.59 276.54) rotate(-76.21)" fill="#66390c"></ellipse><ellipse cx="200.04" cy="97.03" rx="0.45" ry="0.28" transform="translate(58.12 268.18) rotate(-76.21)" fill="#66390c"></ellipse><ellipse cx="197.75" cy="98.26" rx="0.45" ry="0.28" transform="translate(55.18 266.89) rotate(-76.21)" fill="#66390c"></ellipse><ellipse cx="200.63" cy="101.8" rx="0.45" ry="0.28" transform="translate(53.94 272.38) rotate(-76.21)" fill="#66390c"></ellipse><ellipse cx="209.14" cy="100.82" rx="0.45" ry="0.28" transform="translate(61.37 279.89) rotate(-76.21)" fill="#66390c"></ellipse><ellipse cx="207.1" cy="102.75" rx="0.45" ry="0.28" transform="translate(57.94 279.38) rotate(-76.21)" fill="#66390c"></ellipse><ellipse cx="210.37" cy="104.5" rx="0.45" ry="0.28" transform="translate(58.74 283.89) rotate(-76.21)" fill="#66390c"></ellipse><ellipse cx="208.15" cy="98.47" rx="0.45" ry="0.28" transform="translate(62.9 277.14) rotate(-76.21)" fill="#66390c"></ellipse><path d="M193.52,111.16V106.5s-.47-6.28.47-6.73,1.28,4.77,1.28,4.77,2-4.58,3.07-5.45,5.2,1.93,6.05,4-2.74,8.47-2.74,8.47L200,113.73Z" fill="#ffc99c"></path><path d="M187.41,115.24a93.38,93.38,0,0,0-4.88,12.7c-1.06,3.62-3.15,9.12-1,12.68,2.48,4,7.39,2.91,10.16-.16,2.4-2.66,3.61-6.92,5-10.17.52-1.2,7.29-17.51,7.34-17.49l-12.78-4.44C191,108.23,189.3,111.11,187.41,115.24Z" fill="#e24340"></path><path d="M204.74,91.18a10.26,10.26,0,0,0,5.3-.69s.16,3.59-1.7,4S204.88,92.09,204.74,91.18Z" fill="#66390c"></path><path d="M317.42,141.68l-4,2.17c-1.13.62-.12,2.35,1,1.73l4-2.17C319.56,142.79,318.55,141.06,317.42,141.68Z" fill="#ffe1e1"></path><path d="M202.72,231.35,158,256.24l39.31,22.5,60.2-32.3C246.42,241.36,212.7,238.48,202.72,231.35Z" opacity="0.32" fill="url(#linear-gradient-2)" style="mix-blend-mode: multiply;"></path><path d="M201.92,227.78l-4.58,6.66s14.78,25.28,41.83,19.48c0,0,18.77-2.51,26.46-16.55l-4.43-4.88s-13.3,12.33-23.36,13C213.6,247.14,201.92,227.78,201.92,227.78Z" fill="#68e1fd"></path><path d="M261.2,232.51S248,244.71,238,245.5c.53,2.79,1,5.6,1.5,8.39,2.51-.41,19-3.55,26.13-16.51Z" fill="#606060" opacity="0.19" style="isolation: isolate;"></path><path d="M238,245.5c-23.46.95-36.08-17.72-36.08-17.72l-2.69,3.91c2.87,4.51,7.27,8,11.51,11.12,8.55,6.36,18.64,7.77,28,6.58C238.48,248.05,238.27,246.83,238,245.5Z" fill="#ffe89f"></path><path d="M261.2,232.51S248,244.71,238,245.5q.37,1.94.71,3.89a35.67,35.67,0,0,0,3.79-.83,34.63,34.63,0,0,0,14.5-8c1.83-1.7,3.56-3.52,5.37-5.26l.74-.73Z" fill="#ffedbb"></path><path d="M261.2,232.51,229.34,192.2l8.51,53.33S255.16,244.18,261.2,232.51Z" fill="#e91837"></path><path d="M229.34,192.19l-27.41,35.61a41.06,41.06,0,0,0,35.92,17.74Z" fill="#cc1b3d"></path><ellipse cx="225.29" cy="204.92" rx="0.87" ry="1.44" fill="#66390c"></ellipse><ellipse cx="219.89" cy="211.86" rx="0.87" ry="1.44" fill="#66390c"></ellipse><ellipse cx="227.9" cy="214.97" rx="0.87" ry="1.44" fill="#66390c"></ellipse><ellipse cx="229.34" cy="223.61" rx="0.87" ry="1.44" fill="#66390c"></ellipse><ellipse cx="220.75" cy="225.78" rx="0.87" ry="1.44" fill="#66390c"></ellipse><ellipse cx="231.17" cy="237.34" rx="0.87" ry="1.44" fill="#66390c"></ellipse><ellipse cx="215.35" cy="220.29" rx="0.87" ry="1.44" fill="#66390c"></ellipse><ellipse cx="209.26" cy="225.78" rx="0.87" ry="1.44" fill="#66390c"></ellipse><ellipse cx="220.75" cy="234.47" rx="0.87" ry="1.44" fill="#66390c"></ellipse><ellipse cx="246.14" cy="225.04" rx="0.87" ry="1.44" fill="#66390c"></ellipse><ellipse cx="241.33" cy="232.51" rx="0.87" ry="1.44" fill="#66390c"></ellipse><ellipse cx="252.69" cy="235.42" rx="0.87" ry="1.44" fill="#66390c"></ellipse><ellipse cx="241.33" cy="218.59" rx="0.87" ry="1.44" fill="#66390c"></ellipse><ellipse cx="235.71" cy="208.58" rx="0.87" ry="1.44" fill="#66390c"></ellipse><polyline points="334.97 197.23 300.03 217.72 286.64 208.6 320.48 192.79" opacity="0.32" fill="url(#linear-gradient-3)" style="mix-blend-mode: multiply;"></polyline><path d="M314.83,180.1l3.23,15.06a3.39,3.39,0,0,0,1.82,2.33c1.88.92,5.75,1.88,13.11.54a3.41,3.41,0,0,0,2.72-2.62L339,180.1" fill="#68e1fd"></path><ellipse cx="326.92" cy="180.1" rx="12.09" ry="4.95" fill="#124577"></ellipse><path d="M319.89,169a3.88,3.88,0,0,1-1.4-1.3l-6.8-10.53c-3.15-4.88-4.3-39.87,4-40.31,6.56-.35,13.31,15,15.66,19.47,2.2,4.2,4.61,8.67,5.92,13.25,2,6.9-2.51,12.94-6.76,18.42C328.41,170.57,322.62,170.47,319.89,169Z" fill="#66c652"></path><path d="M323.94,175.86q1.37,1,2.69,2a128.51,128.51,0,0,0-6.39-46,1.4,1.4,0,0,0-2.67.84A125.81,125.81,0,0,1,323.94,175.86Z" fill="#124577"></path><path d="M333.55,166.13a2.48,2.48,0,0,1-.16-1.21l.93-7.95c.43-3.68,14.09-21.36,18.33-18.22,3.37,2.5.46,12.79-.21,15.95a46.5,46.5,0,0,1-2.47,8.92c-1.83,4.2-6.5,5.35-10.81,6.31C337.09,170.4,334.28,168,333.55,166.13Z" fill="#49b230"></path><path d="M346.12,148.43a153.55,153.55,0,0,0-14.5,32.65,17.79,17.79,0,0,1,2,1.28,151.4,151.4,0,0,1,14.52-32.84C348.89,148.25,346.87,147.17,346.12,148.43Z" fill="#124577"></path><path d="M78.1,138,36.71,163.18l29.67,20.19,50.88-29.83C104.56,149.52,89.6,144.6,78.1,138Z" opacity="0.32" fill="url(#linear-gradient-4)" style="mix-blend-mode: multiply;"></path><path d="M72.37,143.42c17.34-4.75,46.41-28.89,53.83-35.23a28.2,28.2,0,0,0-6.8-5.51c-.37-.21-.74-.41-1.11-.61C78.38,118.58,72.37,143.42,72.37,143.42Z" fill="#68e1fd"></path><path d="M132.92,121.9c-20.68,16.47-60.54,21.53-60.54,21.53,37.73,2.78,54.54-6.84,60.07-11.16.09-.36.18-.72.26-1.09A24.6,24.6,0,0,0,132.92,121.9Z" fill="#68e1fd"></path><path d="M72.37,143.42s2-30.08,31.22-45a34.68,34.68,0,0,0-14.51,3.07l-.78.36c-1.23.58-2.38,1.18-3.49,1.8C79.28,109.12,71.28,120.93,72.37,143.42Z" fill="#68e1fd"></path><path d="M72.37,143.42c21.8,11.49,37.44,12.08,43.76,10.59a43.13,43.13,0,0,0,10.3-9.64C103.05,154.27,72.37,143.42,72.37,143.42Z" fill="#68e1fd"></path><path d="M72.37,143.42s-5.78-12.11-4-24a30.43,30.43,0,0,0-3.6,15.06C66.6,138,69.15,141.84,72.37,143.42Z" fill="#68e1fd"></path><path d="M72.37,143.42a43.31,43.31,0,0,0,8.25,15.21,29.28,29.28,0,0,0,20.68,2C84.93,156.91,72.37,143.42,72.37,143.42Z" fill="#68e1fd"></path><path d="M67.61,146.3l.27.5a29,29,0,0,0,2.68,3.76l1.82-7.13Z" fill="#68e1fd"></path><path d="M73.88,144.21a3.85,3.85,0,0,0,1.2.89c.59.21.47-.08,1.27.47a18.45,18.45,0,0,0,2.94,1.66c1.16.5,1.31.05,2,.69a7.23,7.23,0,0,0,3.69,1.82c1.39.12,1.78-.16,3,.5s2.49,2.18,4.39,2.26,1.78-.27,3.31.19,2.6,1.61,4.48,1.56,2-.6,3.61,0,3.53,1.35,4.88,1.13,2-.72,3.14-.26a5.4,5.4,0,0,0,1.77.48l2.62-1.62-6.84-.79" fill="#68e1fd"></path><path d="M72.27,141a2.36,2.36,0,0,1-.26-1.25,5.8,5.8,0,0,0,.13-1.45,7.65,7.65,0,0,1,0-2.86,11.66,11.66,0,0,0,.23-3.24,3.62,3.62,0,0,1,.14-2.11,5.71,5.71,0,0,0,.5-1.93c.12-.77-.21-1.51.14-2.45s.59-1.51.76-2.12-.34-1.45.24-3,.91-1.51,1.45-2.79.16-2,.74-2.79a18.36,18.36,0,0,0,1.61-3c.71-1.42.82-2.52,1.73-2.91s1.2-2.06,1.93-2.79,2-2,2.06-2l1.17-.67" fill="#68e1fd"></path><g opacity="0.52"><path d="M72.37,143.42c17.34-4.75,46.41-28.89,53.83-35.23a28.2,28.2,0,0,0-6.8-5.51c-.37-.21-.74-.41-1.11-.61C78.38,118.58,72.37,143.42,72.37,143.42Z" fill="#093e3e"></path><path d="M132.92,121.9c-20.68,16.47-60.54,21.53-60.54,21.53,37.73,2.78,54.54-6.84,60.07-11.16.09-.36.18-.72.26-1.09A24.6,24.6,0,0,0,132.92,121.9Z" fill="#093e3e"></path><path d="M72.37,143.42s2-30.08,31.22-45a34.68,34.68,0,0,0-14.51,3.07l-.78.36c-1.23.58-2.38,1.18-3.49,1.8C79.28,109.12,71.28,120.93,72.37,143.42Z" fill="#093e3e"></path><path d="M72.37,143.42c21.8,11.49,37.44,12.08,43.76,10.59a43.13,43.13,0,0,0,10.3-9.64C103.05,154.27,72.37,143.42,72.37,143.42Z" fill="#093e3e"></path><path d="M72.37,143.42s-5.78-12.11-4-24a30.43,30.43,0,0,0-3.6,15.06C66.6,138,69.15,141.84,72.37,143.42Z" fill="#093e3e"></path><path d="M72.37,143.42a43.31,43.31,0,0,0,8.25,15.21,29.28,29.28,0,0,0,20.68,2C84.93,156.91,72.37,143.42,72.37,143.42Z" fill="#093e3e"></path><path d="M67.61,146.3l.27.5a29,29,0,0,0,2.68,3.76l1.82-7.13Z" fill="#093e3e"></path><path d="M73.88,144.21a3.85,3.85,0,0,0,1.2.89c.59.21.47-.08,1.27.47a18.45,18.45,0,0,0,2.94,1.66c1.16.5,1.31.05,2,.69a7.23,7.23,0,0,0,3.69,1.82c1.39.12,1.78-.16,3,.5s2.49,2.18,4.39,2.26,1.78-.27,3.31.19,2.6,1.61,4.48,1.56,2-.6,3.61,0,3.53,1.35,4.88,1.13,2-.72,3.14-.26a5.4,5.4,0,0,0,1.77.48l2.62-1.62-6.84-.79" fill="#093e3e"></path><path d="M72.27,141a2.36,2.36,0,0,1-.26-1.25,5.8,5.8,0,0,0,.13-1.45,7.65,7.65,0,0,1,0-2.86,11.66,11.66,0,0,0,.23-3.24,3.62,3.62,0,0,1,.14-2.11,5.71,5.71,0,0,0,.5-1.93c.12-.77-.21-1.51.14-2.45s.59-1.51.76-2.12-.34-1.45.24-3,.91-1.51,1.45-2.79.16-2,.74-2.79a18.36,18.36,0,0,0,1.61-3c.71-1.42.82-2.52,1.73-2.91s1.2-2.06,1.93-2.79,2-2,2.06-2l1.17-.67" fill="#093e3e"></path></g><path d="M72.37,143.42s12.56,13.5,28.92,17.23a47.57,47.57,0,0,0,12.22-5q1.33-.76,2.62-1.62C109.82,155.5,94.17,154.91,72.37,143.42Z" fill="#68e1fd"></path><path d="M64.81,134.44A27.36,27.36,0,0,0,67.6,146.3l4.76-2.89C69.15,141.84,66.6,138,64.81,134.44Z" fill="#68e1fd"></path><path d="M72.37,143.42c-1.09-22.49,6.91-34.31,12.44-39.73-8.31,4.61-13.42,10.13-16.4,15.68C66.6,131.32,72.37,143.42,72.37,143.42Z" fill="#68e1fd"></path><path d="M132.92,121.9a26.28,26.28,0,0,0-2.08-6.72,27.93,27.93,0,0,0-4.63-7c-7.43,6.34-36.51,30.48-53.83,35.23C72.37,143.42,112.22,138.36,132.92,121.9Z" fill="#68e1fd"></path><path d="M70.56,150.55a32,32,0,0,0,10.09,8.07,43.31,43.31,0,0,1-8.25-15.21Z" fill="#68e1fd"></path><path d="M72.37,143.42s30.68,10.85,54.06.94a34.22,34.22,0,0,0,6-12.11C126.91,136.58,110.1,146.21,72.37,143.42Z" fill="#68e1fd"></path><path d="M72.37,143.42s6-24.84,45.91-41.37a32.23,32.23,0,0,0-14.71-3.6C74.4,113.32,72.37,143.42,72.37,143.42Z" fill="#68e1fd"></path><path d="M73.14,141.19A3.28,3.28,0,0,0,74.53,139c.27-1.51-.05-1,.86-2.06a9,9,0,0,0,2.16-2.84c.72-1.54.86-3,2.16-3.75a6.81,6.81,0,0,0,2.45-2.07c1-1.1,1.15-2.93,2.64-4.23s4.09-2.64,5-3.89,1.73-2.59,2.93-3.08a23.45,23.45,0,0,0,5-3.61,12.61,12.61,0,0,1,4.71-3.12c2.07-.72,3.77-1.2,4.37-2.18a4.24,4.24,0,0,1,2.11-1.78c1-.5,2.55-.32,3.56-.8s1.1-1.63,2.26-1.92,4-1.38,4-1.38l-1.28-.66L95.05,111.81l-5.14,3.89L87.68,118l-2.87,3.88-7.06,7.9-3,4.42-1,3.31Z" fill="#68e1fd"></path><path d="M73.82,142.34s1.73-.69,3.34-1.16,2.06-.35,3.06-1.19.83-1.61,2.62-2.06,3.17-.71,4.45-2.08.33-2.2,3-3.21,2.73-.11,4.68-1.51,2.69-3.06,4.49-3.78,2.91-.44,4.19-1.95,1.34-3.21,3.34-4,2.45-.5,4-1.68,1.39-2.67,3.67-3.73,3.42-1.28,3.74-2,2.45-3.17,3.94-3.45,4-2.37,4-2.37l-5.2,7.13L97.77,131.82,85.31,139l-6.05,2.44L73.86,143Z" fill="#68e1fd"></path><path d="M74.74,143.09a2.32,2.32,0,0,0,1.13.06c.78-.1,1.13-.36,1.84-.44a16.45,16.45,0,0,0,4.54-.43,26.11,26.11,0,0,1,4.22-1.08c1.88-.33,2.85-.18,4.12-.54s2.24-1.16,3.43-1.3,3.16.07,5.25-.83,3.67-2,5.15-2.24a45.4,45.4,0,0,0,6.9-1.84c3.48-1.19,2.87-2.33,6.14-3s5.22-.81,7.37-2.45,1.64-2.61,4.2-3.15a8.2,8.2,0,0,0,4.09-2.25l-.39-2.61-34.2,13.49L73.8,143" fill="#68e1fd"></path><path d="M74.39,143.55a29.21,29.21,0,0,1,3-.13,23.36,23.36,0,0,0,3.5.13,49,49,0,0,1,5.68-.14c3.35.1,3.78.77,5.86,0s1.27-.94,3.78-.87a30,30,0,0,0,8.19-.5c2.51-.68,5-1.45,6.46-1.41a25.34,25.34,0,0,0,7-1.73,20.85,20.85,0,0,1,4.37-1.41c1.44-.25,4.91-2.8,6.88-3.5a10.29,10.29,0,0,0,3.53-2.32l-.5,1.81-11.67,7-22.7,4.22-9.82,1Z" fill="#68e1fd"></path><path d="M74.2,144a5.87,5.87,0,0,0,1.72.84,47.42,47.42,0,0,1,5,1.28,10.19,10.19,0,0,0,3.49,1.11,30.31,30.31,0,0,1,6.14.84,15.27,15.27,0,0,0,5.11.64,21.26,21.26,0,0,1,6.21.33,11.77,11.77,0,0,0,5.65,0,26,26,0,0,1,6.75-.87,9,9,0,0,0,4.67-.67c1.38-.57,2.19-1.35,3.59-1.35a9.19,9.19,0,0,0,3.43-1.14l.5-.59-34.31,1.94-8.43-.64Z" fill="#68e1fd"></path><path d="M73.3,144.4s-.15.11.41.7,1.27.78,1.88,1.57.41,1.31,1.16,1.66a9.33,9.33,0,0,1,1.92,1c.74.54,1,1.44,2,1.87a7.8,7.8,0,0,1,1.84.92c.5.41.61,1.07,2,1.7s1.74.43,2.45,1A8,8,0,0,0,89.74,157c1.39.46,1.51.33,2.55.74s1.68,1.48,2.84,1.61,2.09-.13,2.91.39a12.37,12.37,0,0,0,2.76,1l.85-.19-10.84-4.67L80.62,150.4l-4.42-3.64-1.59-1.48Z" fill="#68e1fd"></path><path d="M72.76,144.65a1.37,1.37,0,0,1,.34.57c.14.4.18.79.25.92a2.18,2.18,0,0,1,.44.8,3,3,0,0,0,.36,1.18,3.09,3.09,0,0,1,.5.81,3.82,3.82,0,0,0,.28.87c.18.31.34.31.5.64a8.86,8.86,0,0,0,.63,1.6,11.48,11.48,0,0,1,1.65,2.13,4.7,4.7,0,0,0,1.27,2A5.62,5.62,0,0,1,80.5,158a1.43,1.43,0,0,1,.16.64l-1.51-1.08-3.74-5.22-2.65-6.72Z" fill="#68e1fd"></path><path d="M103.83,98.48h-1.56s-1.13.83-1.9,1.46-1.65.61-3,1.3-.88,1.08-1.71,1.73a22.44,22.44,0,0,1-2.9,1.43c-1,.56-.73,1.3-1.82,2.32a26.82,26.82,0,0,1-2.63,1.92c-1.11.88-.84,1.42-1.69,2.52A15.24,15.24,0,0,1,84,113.54c-1,.87-.9,2-1.65,2.92A11.38,11.38,0,0,1,80.17,119c-.87.6-.86,1.92-1.48,3.34s-.77,2.28-1.76,3.17-.5,1.73-1,3a10.75,10.75,0,0,1-1.36,2.87c-.42.41-.25,1.51-.54,2.76a12.51,12.51,0,0,1-.77,2.38,3.9,3.9,0,0,0-.14,1.61,6,6,0,0,1-.47,1.73,3.31,3.31,0,0,0,0,1.09l1.73-3.9,4-8.47,6.09-12.76,9-8.28,3.07-2.91,4-3Z" fill="#68e1fd"></path><path d="M71.68,141.54s-.47-.06-.89-1.17-.28-2.23-.8-3a4.94,4.94,0,0,1-1.05-2.52,7.18,7.18,0,0,0-.21-2.32c-.35-1.43-.68-1.29-.67-2.22s.43-2.08,0-3.4a5.1,5.1,0,0,1-.5-2.37c.07-.73.64-2.52.17-3.81l.69-1.33.5,3.37.7,10.16,1.69,7Z" fill="#68e1fd"></path><path d="M71,142.51l-.86-1c-.45-.5-1.2-.74-1.61-1.73s-.39-1.43-1.28-2-.57-1.33-1.35-2.22a11.37,11.37,0,0,1-1-1.33v.57l2.27,4.7,1.51,1.71Z" fill="#68e1fd"></path><path d="M71.27,144s.32.37-.71,1-.91.71-1.7.85a1.31,1.31,0,0,0-1,.91l-.35-.7Z" fill="#68e1fd"></path><path d="M72,144.6a1,1,0,0,0-.37.64,6.35,6.35,0,0,0-.36,1.33c-.09.85-.38.5-.46,1.2s.21.85,0,1.43a3.05,3.05,0,0,1-.58,1l.43.58,1.05-2.09,1-3.06Z" fill="#68e1fd"></path><path d="M72.66,141a2.09,2.09,0,0,0-2,1.31,6.4,6.4,0,0,1-4.24-3,.55.55,0,0,0-1,.27c0,.87-.4,1.66,0,2.49a3,3,0,0,0,1.78,1.35,7.25,7.25,0,0,0,3.7.44,2.19,2.19,0,0,0,1.76.83,1.86,1.86,0,1,0,0-3.68Zm-6.13.23a.6.6,0,0,0-.2.08,1.87,1.87,0,0,1,0-.31.92.92,0,0,0,.2.24Z" fill="#874518"></path><path d="M68.41,119.37s-9.32,17.21,2.14,31.17c12.44,15.13,36.89,15.89,55.87-6.19C126.43,144.36,74.57,160.69,68.41,119.37Z" fill="#606060" opacity="0.19" style="isolation: isolate;"></path></g></g></svg>